<?xml version="1.0" standalone="no"?>
<!DOCTYPE svg PUBLIC "-//W3C//DTD SVG 20010904//EN"
 "http://www.w3.org/TR/2001/REC-SVG-20010904/DTD/svg10.dtd">
<svg version="1.0" xmlns="http://www.w3.org/2000/svg"
 width="259.000000pt" height="300.000000pt" viewBox="0 0 259.000000 300.000000"
 preserveAspectRatio="xMidYMid meet">
<metadata>
Created by potrace 1.10, written by Peter Selinger 2001-2011
</metadata>
<g transform="translate(0.000000,300.000000) scale(0.100000,-0.100000)"
fill="#000000" stroke="none">
<path d="M1120 2955 c-41 -24 -83 -50 -93 -59 -10 -9 -29 -21 -42 -26 -13 -5
-43 -22 -67 -37 -52 -33 -80 -50 -132 -75 -21 -11 -68 -39 -105 -62 -37 -24
-77 -46 -88 -50 -11 -4 -33 -18 -47 -31 -14 -13 -26 -21 -26 -18 0 3 -8 -1
-17 -9 -10 -8 -65 -41 -123 -72 -58 -32 -134 -75 -170 -96 -36 -22 -72 -43
-81 -47 -60 -30 -129 -80 -129 -93 0 -9 3 -11 8 -5 4 6 20 17 37 25 17 8 32
17 35 21 3 3 37 23 75 44 39 21 93 54 122 72 29 18 57 33 63 33 5 0 10 4 10 9
0 5 8 11 18 14 9 3 44 22 77 41 33 20 68 39 78 42 9 4 17 9 17 13 0 3 15 12
33 20 17 8 50 26 72 41 22 15 76 47 120 70 44 24 82 46 85 49 13 15 112 70
147 83 21 7 63 31 93 53 30 22 76 51 103 63 26 13 47 25 47 28 0 15 -56 -4
-120 -41z"/>
<path d="M1365 2988 c11 -6 29 -20 40 -30 11 -10 31 -21 45 -24 33 -7 38 -10
90 -43 25 -16 117 -71 205 -122 88 -51 180 -106 205 -122 25 -17 79 -48 120
-70 41 -22 86 -48 99 -58 13 -11 28 -19 33 -19 5 0 21 -8 36 -19 30 -20 196
-118 252 -147 19 -11 50 -29 68 -42 30 -22 32 -22 32 -4 0 11 -8 22 -17 26
-10 3 -56 29 -103 57 -47 28 -107 64 -135 79 -27 15 -111 65 -185 110 -74 45
-169 101 -210 123 -41 22 -84 45 -95 51 -11 6 -34 21 -51 33 -17 12 -42 27
-55 32 -32 12 -290 165 -311 185 -10 9 -33 16 -50 16 -30 -1 -31 -2 -13 -12z"/>
<path d="M1354 2952 c3 -5 -4 -23 -15 -40 -10 -18 -19 -37 -19 -43 0 -6 -7
-17 -15 -25 -8 -8 -12 -21 -9 -29 4 -8 2 -15 -2 -15 -5 0 -20 -23 -33 -50 -23
-47 -26 -49 -43 -34 -9 9 -15 20 -13 25 3 4 -1 11 -8 16 -19 11 -42 54 -39 73
2 13 1 13 -7 1 -7 -11 -13 -7 -25 18 -15 28 -46 44 -46 23 0 -4 36 -62 80
-127 68 -103 79 -124 74 -151 -7 -39 20 -68 29 -32 4 13 2 27 -3 32 -18 18
-10 43 61 196 56 120 68 154 57 161 -17 11 -31 11 -24 1z"/>
<path d="M1357 2764 c-42 -91 -77 -172 -77 -181 0 -8 24 -50 54 -93 30 -42
116 -168 191 -279 76 -110 141 -201 146 -201 5 0 13 8 16 18 4 9 45 87 91 172
189 347 212 391 207 400 -15 24 -33 3 -75 -83 -24 -51 -43 -95 -42 -99 1 -5
-5 -8 -14 -8 -8 0 -12 -4 -9 -10 3 -5 1 -10 -4 -10 -6 0 -11 -6 -11 -14 0 -8
-7 -22 -16 -30 -8 -9 -13 -20 -10 -25 4 -5 -1 -16 -9 -24 -8 -9 -15 -19 -15
-22 0 -4 -11 -20 -25 -37 -14 -16 -25 -36 -25 -44 0 -17 -38 -90 -57 -112 -11
-11 -18 -5 -40 34 -16 25 -33 52 -39 58 -6 6 -19 28 -29 49 -9 20 -20 35 -24
33 -4 -3 -12 7 -19 22 -6 15 -23 39 -37 54 -14 15 -25 29 -25 32 0 13 -48 74
-54 69 -3 -4 -6 2 -6 12 0 10 -9 28 -19 39 -10 12 -28 38 -39 58 -10 21 -21
35 -24 33 -8 -8 27 85 50 136 12 26 29 52 37 59 17 14 21 35 5 25 -16 -10 -11
11 9 36 10 13 21 33 23 44 2 11 11 19 18 17 10 -2 9 3 -4 17 -11 12 -20 21
-21 21 -1 0 -36 -75 -78 -166z"/>
<path d="M1015 2839 c-4 -5 0 -18 9 -28 9 -10 16 -21 16 -26 0 -4 20 -36 45
-71 25 -34 45 -67 45 -73 0 -6 7 -11 16 -11 8 0 12 -5 9 -11 -4 -6 1 -16 10
-23 17 -12 17 -15 -1 -52 -10 -21 -19 -41 -20 -44 -2 -18 -54 -119 -63 -124
-6 -4 -11 -14 -11 -22 0 -9 -20 -57 -45 -108 -25 -52 -45 -97 -45 -102 0 -12
-53 -118 -63 -125 -4 -3 -9 -16 -10 -27 -1 -12 -4 -22 -7 -22 -3 0 -11 -15
-18 -32 -7 -18 -19 -46 -27 -61 -8 -16 -15 -35 -15 -43 0 -8 -4 -14 -9 -14 -7
0 -20 -27 -25 -53 0 -4 -7 -11 -14 -16 -8 -4 -13 -14 -12 -22 5 -33 -1 -51
-14 -46 -10 4 -12 0 -8 -15 3 -14 1 -19 -5 -15 -7 5 -9 -1 -5 -15 3 -14 2 -19
-6 -14 -7 4 -12 1 -12 -9 0 -9 -11 -37 -25 -63 -14 -26 -25 -52 -25 -58 0 -6
-7 -17 -15 -24 -8 -7 -15 -21 -15 -31 0 -17 -3 -18 -22 -7 -13 7 -26 17 -30
22 -3 5 -18 23 -32 40 -15 17 -51 63 -81 101 -30 39 -62 79 -72 90 -36 40 -62
82 -55 89 4 4 3 7 -3 6 -20 -4 -35 0 -35 11 0 9 -95 127 -140 174 -11 12 -20
26 -20 32 0 6 -9 15 -21 18 -13 4 -18 12 -15 21 3 8 2 13 -3 10 -5 -3 -17 7
-27 22 -10 15 -28 35 -41 45 -19 16 -23 28 -23 78 0 33 -4 59 -10 59 -6 0 -10
-27 -10 -62 0 -72 -14 -50 214 -328 88 -107 207 -253 265 -325 57 -71 115
-142 129 -157 18 -20 23 -33 18 -52 -3 -14 -1 -34 5 -45 10 -15 2 -41 -53
-157 -149 -316 -247 -530 -250 -543 -2 -8 12 -20 30 -28 33 -14 34 -14 19 8
-14 19 -14 26 6 68 12 25 25 48 30 49 4 2 7 9 7 16 0 6 16 44 35 85 19 40 35
79 35 87 0 8 5 14 11 14 5 0 7 4 4 10 -3 6 -1 10 4 10 6 0 11 5 11 11 0 6 27
67 60 136 33 68 60 131 60 140 0 11 10 5 32 -18 62 -65 87 -97 81 -103 -4 -3
1 -6 10 -6 10 0 17 -4 17 -10 0 -9 19 -36 50 -69 37 -40 110 -134 110 -142 0
-5 6 -9 14 -9 11 0 13 -6 6 -27 -14 -49 -22 -63 -31 -57 -5 3 -6 -1 -4 -8 3
-8 -12 -41 -34 -75 -21 -33 -42 -70 -46 -82 -3 -11 -11 -21 -17 -21 -6 0 -8
-9 -5 -21 3 -12 3 -18 0 -15 -3 3 -15 -14 -26 -37 -12 -23 -24 -44 -27 -47 -3
-3 -14 -22 -23 -42 -10 -21 -21 -38 -24 -38 -3 0 -30 14 -60 31 -30 17 -57 29
-60 26 -3 -3 19 -18 49 -32 29 -15 61 -34 71 -43 11 -9 21 -12 27 -6 10 10
172 303 227 410 l36 72 -49 58 c-27 32 -57 67 -66 79 -9 11 -69 83 -132 160
-87 104 -116 146 -114 165 1 14 -2 35 -6 47 -9 27 -24 -8 468 1045 l97 208
-93 134 c-51 75 -96 136 -100 136 -4 0 -10 -5 -13 -11z"/>
<path d="M1992 2503 c-54 -95 -280 -515 -286 -533 -3 -9 24 -57 62 -112 37
-54 181 -264 321 -469 215 -314 252 -375 248 -398 -3 -15 -1 -33 4 -41 8 -13
10 -13 19 0 5 8 8 21 5 28 -3 6 -7 18 -10 25 -3 6 47 109 110 227 l115 214 0
403 c0 257 -4 404 -10 408 -6 4 -10 -11 -10 -37 0 -24 -1 -204 -1 -401 0 -309
-2 -361 -15 -374 -8 -9 -13 -22 -10 -29 3 -8 0 -14 -7 -14 -7 0 -23 -24 -37
-52 -13 -29 -27 -55 -30 -58 -4 -3 -21 -34 -39 -70 -18 -36 -45 -80 -59 -99
-25 -34 -26 -34 -35 -13 -6 12 -14 22 -18 22 -5 0 -15 15 -23 33 -7 17 -26 46
-40 62 -15 17 -34 42 -42 58 -8 15 -18 27 -23 27 -5 0 -11 10 -15 23 -6 23
-39 69 -68 96 -10 8 -18 20 -18 26 0 6 -13 29 -30 52 -16 22 -26 44 -22 48 4
5 1 5 -5 1 -9 -5 -13 0 -13 15 0 12 -3 19 -7 16 -6 -7 -21 14 -42 58 -5 11
-18 29 -29 41 -11 11 -31 38 -44 60 -14 21 -38 53 -54 70 -17 18 -28 37 -26
43 2 6 -3 14 -12 17 -9 3 -16 12 -16 20 0 8 -3 14 -7 14 -5 0 -13 12 -20 26
-10 22 -8 34 19 87 17 34 35 64 40 65 4 2 8 10 8 18 0 8 12 32 26 54 14 21 23
44 19 50 -3 6 -1 9 7 8 7 -2 13 4 13 12 1 8 12 33 26 55 14 22 33 58 43 80 10
22 26 48 34 58 9 10 17 25 18 34 2 9 9 20 16 24 13 8 14 12 17 45 1 12 7 15
29 10 21 -5 23 -4 12 4 -47 33 -47 33 -88 -37z"/>
<path d="M1235 2509 c-4 -11 -38 -85 -76 -165 -38 -80 -69 -147 -69 -148 0 -2
-31 -68 -69 -147 -129 -270 -341 -728 -341 -737 0 -4 81 -107 180 -228 166
-202 180 -221 175 -251 -6 -34 9 -53 28 -34 8 8 7 17 -2 35 -13 23 -3 44 146
318 88 161 222 407 298 546 75 138 141 252 145 252 5 0 11 -6 13 -12 4 -10 8
-9 16 2 13 18 13 21 1 40 -8 13 -11 13 -22 -3 -12 -16 -34 13 -208 268 -107
156 -198 285 -202 285 -4 0 -10 -9 -13 -21z m80 -134 c26 -38 51 -69 55 -68 5
1 5 -7 2 -19 -3 -13 -1 -19 5 -15 6 4 19 -5 29 -20 9 -15 26 -36 36 -47 10
-11 21 -29 24 -40 4 -12 14 -28 23 -36 9 -8 27 -36 40 -62 13 -26 27 -45 32
-42 5 3 9 -2 9 -10 0 -9 4 -16 8 -16 4 0 13 -14 19 -30 6 -17 7 -28 2 -24 -5
3 -9 -1 -9 -9 0 -19 -30 -78 -51 -100 -10 -11 -20 -31 -24 -45 -4 -15 -12 -34
-19 -42 -14 -17 -43 -70 -76 -142 -11 -25 -27 -49 -35 -52 -9 -3 -12 -12 -8
-22 5 -13 3 -15 -7 -9 -10 6 -12 3 -8 -13 4 -12 2 -20 -3 -17 -4 3 -11 -6 -15
-20 -3 -14 -10 -25 -14 -25 -4 0 -11 -11 -14 -25 -4 -14 -11 -25 -16 -25 -6 0
-10 -9 -10 -20 0 -20 -47 -96 -58 -93 -4 1 -8 -13 -8 -30 -1 -17 -6 -33 -13
-35 -6 -2 -11 -10 -11 -18 0 -9 -5 -12 -10 -9 -6 4 -10 3 -9 -2 4 -22 -2 -43
-11 -38 -6 3 -7 -1 -4 -9 4 -10 1 -16 -9 -16 -8 0 -14 -6 -14 -12 3 -21 -69
-151 -97 -177 l-26 -24 0 22 c0 12 -4 19 -10 16 -6 -3 -10 1 -10 10 0 9 -4 13
-10 10 -5 -3 -10 0 -10 9 0 14 -41 65 -107 133 -18 19 -33 37 -33 41 0 4 -18
27 -40 52 -57 64 -65 74 -65 80 0 3 -3 4 -6 3 -3 -1 -5 12 -4 30 1 17 7 33 14
35 6 2 11 10 11 18 0 7 9 29 20 49 11 20 20 45 20 56 0 11 5 17 10 14 6 -3 10
0 10 7 0 25 47 128 55 120 5 -4 5 1 2 11 -4 11 -1 20 8 23 8 4 13 9 11 13 -3
4 7 29 21 56 14 28 26 57 28 66 2 10 15 35 29 58 14 22 26 46 26 53 0 7 7 22
15 32 8 11 15 27 15 37 0 9 6 19 14 22 9 4 12 14 9 26 -3 12 -1 21 5 21 5 0
18 20 29 45 10 25 21 45 25 45 4 0 10 17 14 38 4 20 10 39 13 42 12 9 51 90
51 106 0 9 5 12 11 8 7 -4 10 -1 7 7 -3 8 6 29 19 47 14 18 22 40 19 48 -3 9
-1 12 4 9 6 -3 10 2 10 11 0 23 6 16 65 -71z"/>
<path d="M6 2060 c2 -19 4 -319 4 -666 l0 -631 27 -12 c23 -9 25 -9 12 1 -15
12 -17 76 -21 603 -2 325 -3 596 -1 602 3 7 11 9 19 6 7 -3 12 -8 9 -12 -2 -4
9 -22 25 -39 16 -18 27 -32 25 -32 -1 0 10 -14 26 -31 16 -17 29 -37 29 -43 0
-7 13 -22 30 -34 16 -12 33 -34 36 -47 3 -14 9 -23 14 -20 9 6 50 -41 43 -49
-4 -3 0 -6 9 -6 15 0 68 -72 68 -93 0 -7 5 -5 10 3 8 12 10 9 10 -13 0 -15 4
-26 8 -25 4 2 24 -15 43 -37 18 -22 37 -41 42 -43 4 -2 7 -10 7 -17 0 -8 6
-18 13 -22 7 -4 30 -29 50 -55 37 -45 38 -48 26 -87 -7 -23 -16 -41 -20 -41
-4 0 -11 -10 -15 -22 -3 -13 -35 -82 -70 -154 -35 -72 -64 -137 -64 -143 0 -7
-4 -10 -9 -7 -4 3 -7 -6 -5 -19 1 -14 -1 -25 -5 -25 -4 0 -15 -18 -25 -40 -10
-22 -22 -38 -27 -35 -5 4 -6 0 -3 -8 3 -8 -4 -30 -15 -48 -12 -19 -21 -40 -21
-47 0 -7 -7 -20 -15 -28 -13 -14 -20 -12 -57 13 -43 29 -78 46 -78 38 0 -2 28
-21 63 -41 34 -21 64 -42 65 -46 2 -4 9 -8 16 -8 14 0 339 689 332 705 -2 7
-128 163 -278 347 -317 387 -325 396 -331 423 -2 11 -3 4 -1 -15z"/>
<path d="M1613 1806 c-92 -167 -365 -671 -455 -839 -55 -101 -77 -151 -70
-160 5 -7 55 -68 112 -137 56 -69 155 -190 220 -270 64 -80 130 -160 147 -178
l29 -33 149 88 c83 49 157 92 165 96 64 30 119 70 141 103 14 21 81 140 148
263 91 167 121 229 114 242 -4 10 -97 147 -206 306 -109 158 -251 365 -316
459 l-117 171 -61 -111z m100 0 c14 -14 22 -28 19 -31 -4 -4 1 -11 11 -16 9
-6 17 -17 17 -24 0 -8 5 -15 10 -15 6 0 10 -7 10 -15 0 -8 5 -15 12 -15 6 0 9
-3 5 -6 -3 -4 14 -33 38 -65 25 -31 45 -63 45 -69 0 -6 3 -9 8 -6 4 2 16 -13
26 -35 11 -21 23 -39 28 -39 4 0 8 -6 8 -14 0 -7 7 -19 15 -26 8 -7 12 -16 9
-21 -3 -5 -1 -9 5 -9 11 0 71 -85 71 -101 0 -5 3 -9 8 -9 4 0 20 -20 35 -45
16 -25 33 -45 37 -45 5 0 20 -24 34 -52 39 -79 52 -99 59 -91 4 3 7 0 7 -9 0
-8 11 -25 25 -38 30 -28 31 -49 6 -81 -10 -13 -22 -35 -26 -49 -4 -14 -10 -27
-14 -30 -11 -9 -41 -71 -41 -86 0 -8 -5 -13 -12 -11 -7 1 -13 -5 -14 -13 -2
-27 -16 -60 -25 -60 -4 0 -13 -16 -20 -34 -7 -19 -16 -33 -21 -30 -4 3 -8 -2
-8 -10 0 -8 -7 -22 -16 -30 -8 -9 -13 -16 -10 -16 4 0 -3 -18 -14 -40 -11 -21
-20 -47 -20 -56 0 -10 -5 -14 -15 -10 -8 3 -14 0 -12 -6 1 -6 -24 -26 -55 -44
-32 -18 -58 -30 -58 -26 0 4 -4 2 -8 -3 -11 -16 -92 -66 -92 -58 0 5 -4 3 -8
-3 -7 -10 -44 -34 -116 -74 l-39 -22 -29 31 c-15 16 -28 35 -28 40 0 6 -5 11
-10 11 -6 0 -20 16 -31 35 -12 19 -28 35 -36 35 -8 0 -12 4 -8 9 3 5 -5 21
-17 34 -66 71 -85 94 -91 110 -4 9 -11 17 -17 17 -5 0 -10 4 -10 10 0 9 -8 18
-76 91 -15 16 -29 37 -30 47 -2 9 -7 18 -13 20 -15 5 -46 36 -48 49 -1 6 -13
23 -27 38 -27 28 -25 54 5 81 10 9 19 25 19 36 0 10 4 18 9 18 5 0 11 10 15
23 3 13 17 40 31 61 14 21 22 42 19 48 -4 7 -2 8 4 4 8 -5 12 1 12 18 0 13 3
26 8 28 11 5 58 80 66 106 4 12 25 52 47 88 22 35 37 70 33 76 -5 7 -3 8 6 3
8 -5 11 -3 8 5 -2 8 4 22 14 32 10 10 18 25 18 33 0 8 4 15 9 15 5 0 8 8 7 18
0 9 5 16 12 15 6 -2 12 5 12 15 0 11 9 29 20 42 19 22 24 35 21 53 -1 5 3 6 9
2 5 -3 10 1 10 9 0 9 5 16 11 16 6 0 9 9 6 20 -3 11 -1 18 4 14 5 -3 9 4 9 15
0 12 5 21 10 21 6 0 10 7 10 17 0 9 11 31 25 49 14 18 25 37 25 43 0 19 28 12
53 -13z"/>
<path d="M2576 1385 c-3 -9 -6 -25 -6 -36 0 -11 -32 -79 -72 -152 -39 -72 -83
-153 -97 -179 l-25 -46 68 -99 c99 -144 91 -136 114 -124 20 10 20 23 24 328
2 175 3 319 2 321 -1 2 -4 -4 -8 -13z m-17 -407 c1 -124 -3 -199 -9 -203 -6
-4 -10 -3 -9 2 4 21 -3 35 -36 70 -19 21 -35 43 -35 49 0 6 -11 23 -25 38 -14
15 -25 35 -25 44 0 15 42 87 59 102 3 3 6 10 6 15 0 6 13 34 30 62 24 42 31
49 37 35 4 -9 7 -106 7 -214z"/>
<path d="M2232 710 c-66 -121 -118 -220 -116 -220 15 0 84 55 84 66 0 8 5 14
11 14 5 0 7 -4 4 -10 -3 -6 1 -7 10 -4 12 5 13 10 4 20 -6 8 -15 11 -20 8 -13
-8 12 47 31 71 20 24 60 106 60 123 0 7 4 12 9 12 5 0 13 9 16 20 4 11 11 18
16 15 5 -3 6 1 3 9 -10 26 16 18 28 -9 6 -14 17 -25 25 -25 7 0 13 -6 13 -12
0 -7 11 -26 25 -42 l25 -29 -38 -28 c-20 -16 -43 -29 -49 -29 -7 0 -13 -4 -13
-8 0 -5 -25 -19 -55 -33 -30 -13 -55 -27 -55 -31 0 -14 12 -9 116 52 56 33
107 60 113 60 22 0 9 28 -58 128 l-69 102 -120 -220z"/>
<path d="M927 546 c-70 -129 -127 -237 -127 -240 0 -3 14 -12 30 -21 17 -9 30
-11 30 -6 0 5 -7 12 -16 15 -12 4 -13 10 -6 19 14 17 74 126 124 227 24 47 45
87 49 90 3 3 12 20 20 38 8 17 18 32 23 32 11 0 86 -80 86 -92 0 -4 7 -8 16
-8 10 0 14 -6 10 -15 -3 -8 -2 -14 3 -12 7 2 35 -29 101 -113 58 -73 76 -95
93 -112 9 -10 17 -20 17 -23 0 -3 3 -6 8 -6 4 -1 14 -14 23 -28 9 -14 31 -41
48 -60 17 -19 31 -39 31 -43 0 -5 4 -7 9 -3 6 3 9 -3 8 -14 -1 -11 -13 -26
-27 -33 -14 -7 -29 -17 -35 -21 -46 -36 -125 -72 -158 -72 -32 0 -35 -2 -20
-13 23 -17 40 -15 71 7 15 10 69 42 120 71 51 28 92 56 90 60 -2 6 -420 522
-488 602 -3 4 -63 -97 -133 -226z"/>
<path d="M0 730 c0 -26 44 -58 157 -116 24 -12 64 -38 90 -57 27 -19 73 -46
103 -60 30 -14 73 -38 95 -51 22 -14 54 -33 70 -42 17 -9 85 -50 152 -90 66
-41 141 -83 166 -94 24 -11 50 -27 57 -35 7 -8 17 -15 22 -15 9 0 207 -115
260 -151 15 -11 43 -19 63 -19 34 0 31 3 -52 46 -48 25 -95 51 -103 58 -21 16
-119 75 -212 125 -42 23 -82 48 -88 56 -7 8 -18 15 -24 15 -7 0 -44 20 -83 44
-39 24 -83 50 -99 58 -16 8 -89 50 -162 94 -73 43 -151 89 -173 102 -21 12
-58 33 -81 47 -24 13 -64 36 -90 50 -26 13 -51 33 -57 42 -9 16 -10 15 -11 -7z"/>
<path d="M2575 730 c-3 -5 -13 -10 -22 -10 -8 0 -31 -14 -50 -30 -18 -17 -57
-42 -86 -56 -29 -14 -66 -37 -84 -50 -17 -13 -34 -24 -36 -24 -3 0 -41 -20
-85 -45 -44 -25 -88 -45 -97 -45 -9 0 -36 -17 -60 -37 -23 -21 -78 -58 -121
-82 -44 -24 -95 -54 -114 -66 -72 -47 -200 -115 -214 -115 -9 0 -29 -14 -46
-30 -29 -28 -55 -44 -184 -112 l-51 -27 37 0 c25 -1 51 8 80 28 42 28 113 71
166 101 116 64 318 183 526 308 39 23 91 52 116 64 25 11 70 38 100 58 30 20
71 45 90 55 75 37 149 91 150 108 0 19 -6 22 -15 7z"/>
<path d="M450 515 c0 -2 34 -24 75 -49 89 -54 99 -53 17 2 -56 37 -92 56 -92
47z"/>
<path d="M914 242 c3 -6 19 -17 34 -25 15 -8 67 -37 115 -65 49 -29 91 -52 95
-52 11 0 -28 25 -133 85 -55 32 -104 60 -109 63 -5 3 -6 0 -2 -6z"/>
</g>
</svg>
